<svg id="Capa_1" enable-background="new 0 0 512.142 512.142" height="512" viewBox="0 0 512.142 512.142" width="512" xmlns="http://www.w3.org/2000/svg"><g><path d="m478.064 75.234h-73.898c-4.143 0-7.5 3.358-7.5 7.5s3.357 7.5 7.5 7.5h73.898c10.021 0 18.174 8.153 18.174 18.174v264.811h-480.334v-264.811c0-10.021 8.152-18.174 18.174-18.174h77.313c4.143 0 7.5-3.358 7.5-7.5s-3.357-7.5-7.5-7.5h-77.313c-18.292 0-33.174 14.882-33.174 33.174v288.962c0 18.292 14.882 33.174 33.174 33.174h125.927v33.769l-20.373 28.411c-2.693 3.755-3.055 8.642-.944 12.753s6.293 6.665 10.914 6.665h211.94c4.621 0 8.803-2.554 10.913-6.665s1.749-8.998-.944-12.752l-19.471-27.153c-.143-.927-.453-1.797-.902-2.579v-32.449h126.927c18.292 0 33.174-14.882 33.174-33.174v-288.962c-.001-18.292-14.883-33.174-33.175-33.174zm0 340.309h-165.536c-4.143 0-7.5 3.358-7.5 7.5s3.357 7.5 7.5 7.5h23.609v28.68h-13.229c-4.143 0-7.5 3.358-7.5 7.5s3.357 7.5 7.5 7.5h16.878l16.434 22.918h-201.299l16.434-22.918h17.879c4.143 0 7.5-3.358 7.5-7.5s-3.357-7.5-7.5-7.5h-14.229v-28.68h105.561c4.143 0 7.5-3.358 7.5-7.5s-3.357-7.5-7.5-7.5h-246.488c-10.021 0-18.174-8.153-18.174-18.174v-9.151h480.334v9.151c0 10.022-8.153 18.174-18.174 18.174z"/><path d="m293.477 272.084c-4.181-.223-7.656 2.985-7.86 7.122l-1.559 31.641c-.203 4.137 2.985 7.656 7.122 7.86.126.006.251.009.375.009 3.973 0 7.287-3.12 7.485-7.131l1.559-31.641c.203-4.137-2.985-7.656-7.122-7.86z"/><path d="m107.41 45.883c10.024 0 18.561-6.465 21.676-15.441h35.057c-18.576 13.841-30.63 35.97-30.63 60.863v74.243h-1.837c-9.502 0-17.232 7.73-17.232 17.233v18.673c0 9.502 7.73 17.233 17.232 17.233h18.674c9.502 0 17.232-7.73 17.232-17.233v-18.673c0-9.502-7.73-17.233-17.232-17.233h-1.837v-74.243c0-33.56 27.303-60.863 60.863-60.863h32.131l-22.007 25.758c-2.69 3.149-2.319 7.883.83 10.574 3.151 2.693 7.885 2.319 10.574-.831l18.874-22.091v31.501c-9.948 3.182-17.172 12.513-17.172 23.503 0 13.604 11.067 24.672 24.672 24.672s24.672-11.068 24.672-24.672c0-10.99-7.224-20.321-17.172-23.503v-32.671l52.464 61.407-29.612 53.489h-59.704l-29.612-53.489 10.566-12.367c2.69-3.149 2.319-7.884-.83-10.574s-7.884-2.317-10.574.83l-10.953 12.819c-3.811 4.461-4.461 10.907-1.619 16.038l26.473 47.819c-10.576 3.167-18.308 12.983-18.308 24.576v22.84c0 11.648 7.807 21.502 18.461 24.619l3.985 80.896c.198 4.012 3.512 7.131 7.485 7.131.124 0 .249-.003.375-.009 4.137-.204 7.325-3.723 7.122-7.86l-3.897-79.125h61.355l-.765 15.521c-.203 4.137 2.985 7.656 7.122 7.86.126.006.251.009.375.009 3.973 0 7.287-3.12 7.485-7.131l.852-17.292c10.654-3.117 18.461-12.971 18.461-24.619v-22.84c0-11.28-7.322-20.875-17.459-24.303l26.623-48.091c2.843-5.132 2.192-11.578-1.619-16.039l-54.98-64.355h32.131c33.561 0 60.863 27.303 60.863 60.863v74.243h-1.837c-9.502 0-17.232 7.73-17.232 17.233v18.673c0 9.502 7.73 17.233 17.232 17.233h18.674c9.502 0 17.232-7.73 17.232-17.233v-18.673c0-9.502-7.73-17.233-17.232-17.233h-1.837v-74.243c0-24.894-12.054-47.022-30.63-60.863h35.057c3.115 8.977 11.652 15.441 21.676 15.441 12.65 0 22.942-10.292 22.942-22.941-.001-12.65-10.293-22.942-22.943-22.942-10.024 0-18.561 6.465-21.676 15.442h-257.384c-3.115-8.977-11.652-15.442-21.676-15.442-12.65 0-22.942 10.292-22.942 22.942-.001 12.65 10.291 22.941 22.942 22.941zm45.172 136.898v18.673c0 1.231-1.001 2.233-2.232 2.233h-18.674c-1.231 0-2.232-1.001-2.232-2.233v-18.673c0-1.231 1.001-2.233 2.232-2.233h18.674c1.231 0 2.232 1.002 2.232 2.233zm153.905 23.289c0 5.874-4.778 10.652-10.652 10.652h-77.113c-5.874 0-10.652-4.779-10.652-10.652v-22.84c0-5.874 4.778-10.652 10.652-10.652h77.113c5.874 0 10.652 4.779 10.652 10.652zm79.626-23.289v18.673c0 1.231-1.001 2.233-2.232 2.233h-18.674c-1.231 0-2.232-1.001-2.232-2.233v-18.673c0-1.231 1.001-2.233 2.232-2.233h18.674c1.231 0 2.232 1.002 2.232 2.233zm22.033-167.781c4.38 0 7.942 3.563 7.942 7.942s-3.563 7.941-7.942 7.941-7.941-3.563-7.941-7.941c0-4.379 3.562-7.942 7.941-7.942zm-150.868 93.528c-5.333 0-9.672-4.339-9.672-9.672s4.339-9.672 9.672-9.672 9.672 4.339 9.672 9.672-4.339 9.672-9.672 9.672zm-149.868-93.528c4.379 0 7.941 3.563 7.941 7.942s-3.563 7.941-7.941 7.941c-4.38 0-7.942-3.563-7.942-7.941-.001-4.379 3.562-7.942 7.942-7.942z"/></g></svg>